<svg width="24" height="24" viewBox="0 0 24 24" fill="none" xmlns="http://www.w3.org/2000/svg">
<path fill-rule="evenodd" clip-rule="evenodd" d="M17.7648 6.21283C17.4719 5.91994 16.997 5.91994 16.7041 6.21283L12.0002 10.9167L7.29627 6.21283C7.00338 5.91994 6.5285 5.91994 6.23561 6.21283L6.21332 6.23512C5.92043 6.52801 5.92043 7.00289 6.21332 7.29578L10.9172 11.9997L6.21332 16.7036C5.92043 16.9965 5.92043 17.4714 6.21332 17.7643L6.23561 17.7865C6.5285 18.0794 7.00338 18.0794 7.29627 17.7865L12.0002 13.0826L16.7041 17.7865C16.997 18.0794 17.4719 18.0794 17.7648 17.7865L17.787 17.7643C18.0799 17.4714 18.0799 16.9965 17.787 16.7036L13.0831 11.9997L17.787 7.29578C18.0799 7.00289 18.0799 6.52801 17.787 6.23512L17.7648 6.21283Z" fill="#696C71"/>
</svg>
